<svg width="26" height="27" viewBox="0 0 26 27" fill="none" xmlns="http://www.w3.org/2000/svg">
<mask id="mask0" mask-type="alpha" maskUnits="userSpaceOnUse" x="0" y="0" width="26" height="27">
<path d="M0 0.137299H26V26.2115H0V0.137299Z" fill="white"/>
</mask>
<g mask="url(#mask0)">
<path fill-rule="evenodd" clip-rule="evenodd" d="M13.0238 2.57843C13.0239 2.57785 13.0239 2.57727 13.024 2.57658C11.1961 2.57658 9.36543 2.51886 7.54127 2.6023C6.69506 2.64101 5.80332 2.82422 5.03372 3.16956C3.21337 3.98632 2.49253 5.61174 2.46041 7.49198C2.39604 11.273 2.40945 15.0562 2.46584 18.8374C2.47763 19.6235 2.69684 20.4595 3.02652 21.1774C3.87169 23.0178 5.51015 23.7203 7.40549 23.7497C11.1375 23.8076 14.8723 23.8269 18.6035 23.7474C21.6278 23.6832 23.4701 21.8543 23.5397 18.8276C23.6259 15.0667 23.5917 11.302 23.5361 7.53996C23.5245 6.75321 23.3115 5.91686 22.9849 5.19756C22.1252 3.30445 20.4462 2.64877 18.5074 2.59025C16.681 2.5352 14.8518 2.57843 13.0238 2.57843ZM26 8.48106V17.8678C25.9637 18.2295 25.9123 18.5905 25.8937 18.9531C25.6893 22.9209 23.3613 25.4824 19.4466 26.0274C18.8606 26.1091 18.2691 26.1513 17.68 26.2116H8.32C7.96051 26.1753 7.60171 26.1227 7.24117 26.1052C3.30119 25.9136 0.722107 23.56 0.180498 19.6433C0.0990311 19.0545 0.0591644 18.4597 0 17.8678V8.48106C0.0362844 8.11939 0.0886311 7.75852 0.106311 7.39591C0.29848 3.44398 2.64634 0.858802 6.55292 0.317732C7.13914 0.236497 7.7309 0.1964 8.32 0.137299H17.68C18.0395 0.173687 18.3983 0.226183 18.7587 0.243797C22.7008 0.435241 25.2832 2.79375 25.8158 6.70593C25.896 7.29509 25.9394 7.88924 26 8.48106Z" fill="black"/>
</g>
<path fill-rule="evenodd" clip-rule="evenodd" d="M17.6192 13.4315C17.6247 10.9971 15.6776 9.03027 13.2565 9.02476C10.8291 9.01937 8.86772 10.9723 8.86235 13.4002C8.85697 15.8347 10.8041 17.8014 13.2253 17.8068C15.6525 17.8122 17.6139 15.8592 17.6192 13.4315ZM19.9815 13.4492C19.9725 17.2066 16.9622 20.189 13.1925 20.1758C9.45028 20.1626 6.4822 17.1364 6.50008 13.3527C6.51773 9.62738 9.5225 6.65035 13.2597 6.65586C17.0106 6.66125 19.9906 9.67297 19.9815 13.4492Z" fill="black"/>
<path fill-rule="evenodd" clip-rule="evenodd" d="M21.1848 6.38457C21.1967 7.18798 20.5399 7.86172 19.7436 7.86301C18.9791 7.86419 18.3112 7.20607 18.2964 6.43682C18.2811 5.64316 18.9486 4.96577 19.7455 4.96588C20.5239 4.96588 21.1734 5.60601 21.1848 6.38457Z" fill="black"/>
</svg>
