<svg width="29" height="30" viewBox="0 0 29 30" fill="none" xmlns="http://www.w3.org/2000/svg">
<path d="M29 18.2422V29.3334H22.7844V18.985C22.7844 16.3854 21.8853 14.6113 19.6355 14.6113C17.918 14.6113 16.8959 15.807 16.4463 16.9635C16.2823 17.377 16.2401 17.9525 16.2401 18.5313V29.3334H10.0224C10.0224 29.3334 10.1061 11.8067 10.0224 9.99077H16.2395V12.7325C16.2269 12.753 16.2105 12.7751 16.1986 12.795H16.2395V12.7325C17.0655 11.4164 18.5407 9.53636 21.8425 9.53636C25.9333 9.53629 29 12.3009 29 18.2422ZM3.51836 0.666656C1.39128 0.666656 0 2.10996 0 4.00796C0 5.86459 1.35103 7.3517 3.43583 7.3517H3.47737C5.64564 7.3517 6.99411 5.86487 6.99411 4.00796C6.95325 2.10996 5.64564 0.666656 3.51836 0.666656ZM0.369279 29.3334H6.58465V9.99077H0.369279V29.3334Z" fill="black"/>
</svg>
